# xmcd
#
# Track frame offsets: 
#        150
#        17207
#        32510
#        46175
#        74550
#        90890
#        109275
#        129902
#        145490
#        161797
#        181982
#        199012
#        216750
#        231637
#
# Disc length: 3329 seconds
#
# Revision: 0
# Processed by: cddbd v1.5PL3 Copyright (c) Steve Scherf et al.
# Submitted via: ExactAudioCopy v0.95a4
#
DISCID=c70cff0e
DTITLE=Hether Headley - This Is Who I Am 
DYEAR=2002
DGENRE=R&B
TTITLE0=He Is
TTITLE1=Nature Of A Man
TTITLE2=Fallin' For You
TTITLE3=I Wish I Wasn't
TTITLE4=Fulltime
TTITLE5=Like Ya Use To
TTITLE6=Always Been Your Girl
TTITLE7=Sunday
TTITLE8=Four Words From A Heartbreak
TTITLE9=Sista Girl
TTITLE10=Why Should I Cry
TTITLE11=If It Wasn't For Your Love
TTITLE12=Sunday (Monday Mix)
TTITLE13=Just One Dream
EXTD=
EXTT0=
EXTT1=
EXTT2=
EXTT3=
EXTT4=
EXTT5=
EXTT6=
EXTT7=
EXTT8=
EXTT9=
EXTT10=
EXTT11=
EXTT12=
EXTT13=
PLAYORDER=
